<?xml version="1.0" standalone="no"?><!DOCTYPE svg PUBLIC "-//W3C//DTD SVG 1.1//EN" "http://www.w3.org/Graphics/SVG/1.1/DTD/svg11.dtd"><svg t="1686836337438" class="icon" viewBox="0 0 1033 1024" version="1.1" xmlns="http://www.w3.org/2000/svg" p-id="16707" xmlns:xlink="http://www.w3.org/1999/xlink" width="201.7578125" height="200"><path d="M8.608795 445.152967a169.651179 169.651179 0 0 0 105.47141 32.388859 317.120143 317.120143 0 0 0 99.658026-17.440155 668.730267 668.730267 0 0 0-4.982901 85.539806c0 79.726421 45.676595 159.452841 83.878838 211.773304a648.474773 648.474773 0 0 0 139.521236 142.012687v10.796286c0 60.625299 62.286266 104.640927 69.760618 109.623828a26.077183 26.077183 0 0 0 28.236441 0c7.474352-4.982901 69.760618-48.998529 69.760618-109.623828v-10.796286a630.669206 630.669206 0 0 0 139.521235-142.012687c38.202243-52.320463 83.878838-132.046884 83.878839-211.773304a668.730267 668.730267 0 0 0-4.982902-85.539806 317.128447 317.128447 0 0 0 99.658026 17.440155 169.642874 169.642874 0 0 0 105.471411-32.388859 25.313139 25.313139 0 0 0 9.965802-18.270638 23.369807 23.369807 0 0 0-7.474352-19.101121 1577.528413 1577.528413 0 0 0-132.877367-112.945763 227.984343 227.984343 0 0 0-137.860269-46.507078 245.424498 245.424498 0 0 0-48.168046 4.982901 75.814843 75.814843 0 0 0-10.796286-6.643868 172.989723 172.989723 0 0 1 5.813385-21.592573 252.591571 252.591571 0 0 1 34.049825-66.438683 199.091821 199.091821 0 0 1 62.286266-56.472882 96.859296 96.859296 0 0 1 44.015628-11.626769 72.052753 72.052753 0 0 1 23.25354 4.152417 91.59403 91.59403 0 0 1 29.897407 17.440155l0.830484 0.830483a155.682446 155.682446 0 0 1 24.914506 26.575474 218.799195 218.799195 0 0 1 18.270638 26.575474c1.660967 3.321934 4.152418 6.643868 5.813385 9.965802 2.491451 4.982901 4.982901 9.135319 7.474352 13.287737l10.796286 22.423056a29.307764 29.307764 0 0 0 25.74499 16.609671 35.320465 35.320465 0 0 0 9.135319-1.660968 29.415727 29.415727 0 0 0 19.101122-35.710792l-7.474352-24.084023a173.770377 173.770377 0 0 0-6.643868-19.101122c-1.660967-3.321934-2.491451-6.643868-4.152418-9.965802 0-0.830484 0-0.830484-0.830484-1.660967-4.982901-10.796286-10.796286-24.084023-18.270638-37.37176a205.577897 205.577897 0 0 0-30.727891-42.354661 189.233981 189.233981 0 0 0-49.829013-39.032726 156.546149 156.546149 0 0 0-73.913036-17.440155 182.590113 182.590113 0 0 0-67.269167 12.457253 303.782577 303.782577 0 0 0-107.962861 73.082552 351.593515 351.593515 0 0 0-64.777717 92.183674 298.633579 298.633579 0 0 0-12.457253 30.727891c-18.270638-1.660967-36.541276-3.321934-56.472881-3.321934a421.121597 421.121597 0 0 0-56.472881 3.321934c-3.321934-9.135319-7.474352-19.931605-12.457254-30.727891a365.753259 365.753259 0 0 0-64.777716-92.183674 298.284776 298.284776 0 0 0-107.132378-72.252068 182.590113 182.590113 0 0 0-67.269167-12.457253 154.204185 154.204185 0 0 0-73.913036 17.440154 173.571061 173.571061 0 0 0-49.829013 39.032727 283.535388 283.535388 0 0 0-30.727891 41.524177 218.126504 218.126504 0 0 0-18.270638 37.37176c0 0.830484 0 0.830484-0.830484 1.660967-1.660967 3.321934-2.491451 7.474352-4.152417 9.965802-2.491451 6.643868-4.982901 12.457253-6.643869 18.270639l-7.474352 24.084022a29.357593 29.357593 0 0 0 14.948704 34.880309 33.327305 33.327305 0 0 0 12.457253 2.491451 27.879333 27.879333 0 0 0 25.74499-16.609671s4.982901-10.796286 10.796286-24.084023c1.660967-3.321934 4.152418-7.474352 6.643869-13.287737a61.954073 61.954073 0 0 1 5.813385-9.965802 313.092297 313.092297 0 0 1 18.270638-27.405957 194.623819 194.623819 0 0 1 24.914506-26.575474l0.830484-0.830483a101.393736 101.393736 0 0 1 29.897407-17.440155 72.052753 72.052753 0 0 1 23.25354-4.152417 91.635555 91.635555 0 0 1 44.846111 12.457253 199.091821 199.091821 0 0 1 62.286266 56.472881 244.502661 244.502661 0 0 1 34.880309 66.438684c2.491451 8.304835 4.152418 15.779187 5.813385 21.592572-4.152418 2.491451-7.474352 4.152418-11.62677 6.643868a245.424498 245.424498 0 0 0-48.168045-4.982901 222.768907 222.768907 0 0 0-137.860269 46.507079 1424.528429 1424.528429 0 0 0-132.877368 112.945762 27.713236 27.713236 0 0 0-7.474352 19.101122 21.426476 21.426476 0 0 0 8.304836 20.762088z" fill="#2D2413" p-id="16708"></path><path d="M574.168091 909.39327c0 48.998529-58.964332 88.86174-58.964332 88.86174s-58.964332-39.86321-58.964332-88.86174 26.575474-88.86174 58.964332-88.861739c33.219342 0 58.964332 39.86321 58.964332 88.861739zM691.266271 283.208676s97.997059-35.710793 186.028314 31.558375a1412.378455 1412.378455 0 0 1 130.385917 110.454311c-66.438684 50.659496-169.418644 22.423056-238.348778-11.626769z" fill="#8C92BF" p-id="16709"></path><path d="M746.908668 355.460744s4.152418 29.066924 42.354661 51.48998c39.032727 22.423056 102.97996 9.965803 142.012687 7.474352-54.811914-69.760618-164.435742-79.726421-184.367348-58.964332z" fill="#443665" p-id="16710"></path><path d="M339.97173 283.208676s-97.997059-35.710793-186.028314 31.558375a1412.378455 1412.378455 0 0 0-130.385917 110.454311c66.438684 50.659496 169.418644 22.423056 238.348778-11.626769z" fill="#8C92BF" p-id="16711"></path><path d="M284.329333 355.460744s-4.152418 29.066924-42.354661 51.48998c-39.032727 22.423056-102.97996 9.965803-142.012687 7.474352 54.811914-69.760618 164.435742-79.726421 184.367348-58.964332z" fill="#443665" p-id="16712"></path><path d="M797.568165 545.641477c0 161.113808-211.773305 364.582277-281.533923 364.582277s-281.533923-203.468469-281.533922-364.582277 40.693694-314.753264 281.533922-314.753265 281.533923 153.639456 281.533923 314.753265z" fill="#8C92BF" p-id="16713"></path><path d="M628.980005 596.300973c-41.524177 97.997059-73.913036 188.519765-116.267697 188.519765s-46.507079-63.11675-107.962861-188.519765c-61.455783-126.233499 32.388858-189.350249 107.962861-189.350249s172.740578 56.472881 116.267697 189.350249z" fill="#E3E4F3" p-id="16714"></path><path d="M582.472926 294.835445v-14.948703a116.724463 116.724463 0 0 1 1.660967-14.948704c0.830484-5.813385 1.660967-11.62677 2.491451-16.609671a86.461642 86.461642 0 0 1 4.982901-18.270638 227.270128 227.270128 0 0 1 15.779187-40.693694 341.062983 341.062983 0 0 1 59.794816-85.539806 259.650681 259.650681 0 0 1 98.827542-66.438683c38.202243-14.948704 85.539805-14.948704 120.420114 3.321934a148.997053 148.997053 0 0 1 43.185145 33.219342 182.374187 182.374187 0 0 1 27.405957 38.202243 340.564693 340.564693 0 0 1 17.440154 34.880309c4.152418 10.796286 8.304835 19.931605 10.796287 27.405957 4.982901 15.779187 7.474352 24.084023 7.474351 24.084023 0.830484 1.660967-0.830484 4.152418-2.49145 4.982901a3.703957 3.703957 0 0 1-4.982901-2.49145s-4.152418-8.304835-10.796287-22.423056c-3.321934-7.474352-8.304835-15.779187-13.287736-24.914507a280.529037 280.529037 0 0 0-20.762089-29.897407 164.32778 164.32778 0 0 0-29.066924-29.897408 125.261833 125.261833 0 0 0-38.202243-22.423056 107.01611 107.01611 0 0 0-88.031256 9.965803 217.462117 217.462117 0 0 0-70.591102 63.947233 262.183656 262.183656 0 0 0-38.202243 73.913036c-3.321934 11.62677-5.813385 21.592572-7.474352 30.727891a64.121635 64.121635 0 0 0-1.660967 12.457253 32.272591 32.272591 0 0 0 0 9.135319v6.643868c0 3.321934 0.830484 5.813385 0.830483 7.474352a37.637514 37.637514 0 0 1 0.830484 6.643869 43.93258 43.93258 0 1 1-87.200773 10.796286 38.144109 38.144109 0 0 0 0.830484-8.304836zM361.564302 290.683028a37.637514 37.637514 0 0 1 0.830484-6.643869c0-2.491451 0.830484-4.982901 0.830484-7.474352v-15.779187a86.370289 86.370289 0 0 0-1.660968-12.457253 126.084012 126.084012 0 0 0-7.474352-30.727892 262.341448 262.341448 0 0 0-38.202243-73.913035 227.15386 227.15386 0 0 0-70.591101-63.947233 110.271605 110.271605 0 0 0-88.031256-9.965803 125.245224 125.245224 0 0 0-38.202243 22.423056 196.110385 196.110385 0 0 0-29.066925 29.897407 280.520733 280.520733 0 0 0-20.762088 29.897408c-4.982901 9.965803-9.965803 17.440154-13.287737 24.914507-6.643868 14.11822-10.796286 22.423056-10.796286 22.423055a3.994626 3.994626 0 0 1-4.982901 1.660968 3.695652 3.695652 0 0 1-1.660968-4.982902s2.491451-9.135319 7.474352-24.084023c2.491451-7.474352 6.643868-16.609671 10.796287-27.405957a340.564693 340.564693 0 0 1 17.440154-34.880309 218.699537 218.699537 0 0 1 27.405957-38.202243 135.966766 135.966766 0 0 1 43.185145-33.219342c34.880309-18.270638 82.217871-18.270638 120.420114-3.321934a276.551021 276.551021 0 0 1 97.997059 66.438684 341.054678 341.054678 0 0 1 59.794815 85.539805 227.278432 227.278432 0 0 1 15.779187 40.693694c1.660967 6.643868 3.321934 12.457253 4.982902 18.270638a57.560815 57.560815 0 0 1 2.49145 16.609671c0.830484 5.813385 0.830484 10.796286 1.660967 14.948704v14.948704a44.015628 44.015628 0 1 1-88.031256 1.660967c1.660967 0.830484 1.660967-1.660967 1.660967-3.321934z" fill="#CFC2E0" p-id="16715"></path><path d="M623.997103 489.168595l93.014158-19.931605c0.830484 0 2.491451 0.830484 2.49145 1.660967a3.047875 3.047875 0 0 1-0.830483 2.491451l-81.387388 48.998529a18.802148 18.802148 0 1 1-19.101121-32.388858c2.491451 0 4.152418-0.830484 5.813384-0.830484zM393.953161 522.387937l-81.387388-48.998529c-0.830484-0.830484-1.660967-1.660967-0.830483-3.321934a3.047875 3.047875 0 0 1 2.49145-0.830484l93.014158 19.931605a18.004883 18.004883 0 0 1 14.11822 21.592573 17.622861 17.622861 0 0 1-21.592572 14.11822 7.540791 7.540791 0 0 1-5.813385-2.491451z" fill="#64649F" p-id="16716"></path><path d="M439.629756 719.212538c0 41.524177 63.947233 70.591102 75.574003 70.591102s75.574003-29.066924 75.574002-70.591102c0.830484-41.524177-151.148006-41.524177-151.148005 0z" fill="#64649F" p-id="16717"></path><path d="M568.354706 732.500275l-34.049826 28.23644h-1.660967v-0.830483l21.592572-38.202243a9.135319 9.135319 0 0 1 15.779188 9.135319zM477.831999 720.043022l21.592572 38.202243v1.660967h-0.830483l-34.049826-28.236441a10.181728 10.181728 0 0 1-1.660967-13.287736 9.268196 9.268196 0 0 1 13.287737-0.830484c0 0.830484 0.830484 1.660967 1.660967 2.491451z" fill="#212135" p-id="16718"></path><path d="M496.102637 818.04008c-4.982901 7.474352-15.779187 17.440154-15.779187 27.405957a37.83683 37.83683 0 0 0 35.710792 36.541276 38.451388 38.451388 0 0 0 35.710793-36.541276c0-10.796286-10.796286-20.762089-15.779188-27.405957z" fill="#F69986" p-id="16719"></path><path d="M516.034242 883.64828a39.315091 39.315091 0 0 1-36.541276-37.371759 40.585731 40.585731 0 0 1 10.796286-22.423056c1.660967-2.491451 3.321934-4.152418 4.982902-6.643868v-0.830484h41.524177v0.830484a27.231556 27.231556 0 0 0 4.982901 6.643868 40.585731 40.585731 0 0 1 10.796286 22.423056 38.650704 38.650704 0 0 1-36.541276 37.371759z m-19.101121-63.947233c-1.660967 1.660967-2.491451 4.152418-4.152418 5.813385a38.808496 38.808496 0 0 0-10.796286 20.762089 36.541276 36.541276 0 0 0 34.049825 34.880309 36.001462 36.001462 0 0 0 34.049826-34.880309 38.800191 38.800191 0 0 0-10.796286-20.762089c-1.660967-2.491451-3.321934-4.152418-4.152418-5.813385z" fill="#414142" p-id="16720"></path><path d="M516.034242 866.208126a1.78554 1.78554 0 0 1-1.660967-1.660967v-35.710793a1.660967 1.660967 0 1 1 3.321934 0v35.710793a1.78554 1.78554 0 0 1-1.660967 1.660967z" fill="#414142" p-id="16721"></path><path d="M574.998574 826.344916h-118.759147l-24.914507-24.914507a7.632144 7.632144 0 0 1 10.796287-10.796286l19.931605 20.762089h106.301894l20.762088-20.762089a7.632144 7.632144 0 0 1 10.796287 10.796286z" fill="#231F20" p-id="16722"></path><path d="M481.984417 818.04008l34.049825-22.423056 33.219342 22.423056h-67.269167z" fill="#231F20" p-id="16723"></path><path d="M657.216445 651.943371a338.064938 338.064938 0 0 1 41.524178 2.49145 52.935021 52.935021 0 0 0 14.11822-36.541276 55.642398 55.642398 0 1 0-111.284795 0 52.935021 52.935021 0 0 0 14.11822 36.541276 328.33167 328.33167 0 0 1 41.524177-2.49145z" fill="#231F20" p-id="16724"></path><path d="M666.351764 617.893545m-15.779187 0a15.779187 15.779187 0 1 0 31.558375 0 15.779187 15.779187 0 1 0-31.558375 0Z" fill="#FFFFFF" p-id="16725"></path><path d="M374.021556 651.943371a338.064938 338.064938 0 0 1 41.524177 2.49145 52.935021 52.935021 0 0 0 14.11822-36.541276 55.642398 55.642398 0 1 0-111.284795 0 52.935021 52.935021 0 0 0 14.11822 36.541276 338.064938 338.064938 0 0 1 41.524178-2.49145z" fill="#231F20" p-id="16726"></path><path d="M383.156875 617.893545m-15.779188 0a15.779187 15.779187 0 1 0 31.558375 0 15.779187 15.779187 0 1 0-31.558375 0Z" fill="#FFFFFF" p-id="16727"></path><path d="M315.057224 709.246736l60.625299-27.405958a23.785049 23.785049 0 1 1 6.643868 44.846112l-65.6082-9.135319a4.650708 4.650708 0 0 1-4.152418-4.982901 3.703957 3.703957 0 0 1 2.491451-3.321934zM714.51981 717.551571l-65.6082 9.135319a23.49438 23.49438 0 1 1 6.643868-44.846112l60.625299 27.405958a4.2936 4.2936 0 0 1 2.491451 5.813384 7.067415 7.067415 0 0 1-4.152418 2.491451z" fill="#D6AFA7" p-id="16728"></path></svg>